<?xml version="1.0" encoding="utf-8"?>
<!-- Generator: Adobe Illustrator 24.0.3, SVG Export Plug-In . SVG Version: 6.00 Build 0)  -->
<svg version="1.1" id="Layer_1" xmlns="http://www.w3.org/2000/svg" xmlns:xlink="http://www.w3.org/1999/xlink" x="0px" y="0px"
	 viewBox="0 0 851.2 126.4" style="enable-background:new 0 0 851.2 126.4;" xml:space="preserve">
<style type="text/css">
	.st0{fill:none;stroke:#000000;}
</style>
<g>
	<g>
		<g>
			<path d="M6.7,10.1c0-2.4,1-3.4,3.4-3.4h73.2c2.4,0,3.4,1,3.4,3.4v10.8c0,1.7-0.7,2.4-2.4,2.4h-59v33.2h46.9c2.4,0,3.4,1,3.4,3.4
				v9.8c0,2.4-1,3.4-3.4,3.4H25.3v48.4c0,2.4-1,3.4-3.4,3.4H10.1c-2.4,0-3.4-1-3.4-3.4V10.1z"/>
			<path d="M85.5,85.1c0-25.5,17.4-41.3,41.3-41.3c23.9,0,41.3,15.8,41.3,41.3c0,27.3-18.9,41.3-41.3,41.3
				C104.4,126.4,85.5,112.4,85.5,85.1z M150.2,85.3c0-17-10.5-26.6-23.4-26.6c-13,0-23.4,9.6-23.4,26.6c0,15.5,8.8,26.3,23.4,26.3
				C141.5,111.6,150.2,100.8,150.2,85.3z"/>
			<path d="M182.2,48.9c0-2.4,1-3.4,3.4-3.4h10.5c2.4,0,3.4,1,3.4,3.4V56c5.6-7.1,14-12.1,25.6-12.1c15.2,0,24.6,9.3,24.6,23.4
				c0,2.4-1.2,3.4-3.4,3.4h-10.6c-1.9,0-2.5-0.7-2.7-2.7c-0.7-5.7-4.2-9.3-11.5-9.3c-6.7,0-12.5,4.6-16.2,9.8
				c-3.7,5.2-5.9,11.6-5.9,21.7v31.2c0,2.4-1,3.4-3.4,3.4h-10.5c-2.4,0-3.4-1-3.4-3.4V48.9z"/>
			<path d="M261.1,48.9c0-2.4,1-3.4,3.4-3.4H275c2.4,0,3.4,1,3.4,3.4v7.2c5.4-7.6,12.3-12.3,23.4-12.3c10.1,0,17,4,20.1,11.1
				c5.4-6.4,13.7-11.1,25.5-11.1c14,0,23.8,7.6,23.8,23.4v54.1c0,2.4-1,3.4-3.4,3.4h-10.5c-2.4,0-3.4-1-3.4-3.4V69.6
				c0-7.1-3-11-9.9-11c-5.1,0-9.8,2.4-13.8,7.2c-4.2,5.1-6.1,9.8-6.1,18.2v37.3c0,2.4-1,3.4-3.4,3.4h-10.5c-2.4,0-3.4-1-3.4-3.4
				V69.5c0-7.1-3-10.8-9.9-10.8c-4.7,0-9.6,2.7-13.1,7.2c-3.5,4.6-5.4,7.9-5.4,16.7v38.8c0,2.4-1,3.4-3.4,3.4h-10.5
				c-2.4,0-3.4-1-3.4-3.4V48.9z"/>
			<path d="M398.2,9.8c6.4,0,11.5,5.1,11.5,11.5c0,6.4-5.1,11.5-11.5,11.5c-6.4,0-11.5-5.1-11.5-11.5
				C386.7,14.8,391.8,9.8,398.2,9.8z M389.6,48.9c0-2.4,1-3.4,3.4-3.4h10.5c2.4,0,3.4,1,3.4,3.4v72.5c0,2.4-1,3.4-3.4,3.4H393
				c-2.4,0-3.4-1-3.4-3.4V48.9z"/>
			<path d="M485.4,117.8c-6.6,5.6-12.3,8.6-24.4,8.6c-19.9,0-36.6-13.8-36.6-41.3c0-26,17.7-41.3,38.6-41.3c9.9,0,17.5,3.2,22.4,8.4
				V6.7c0-2.4,1-3.4,3.4-3.4h10.5c2.4,0,3.4,1,3.4,3.4v114.6c0,2.4-1,3.4-3.2,3.4h-8.3c-2.4,0-3.5-0.8-4.4-3.4L485.4,117.8z
				 M485.4,78.6c0-5.2-1-8.6-4.6-12.5c-3.7-4.2-9.3-7.4-16.2-7.4c-12.8,0-22.4,10.1-22.4,26.6c0,15.2,8.6,26.3,22.3,26.3
				c7.6,0,13.5-3.2,16.9-7.6c3.2-4,4-7.6,4-13.1V78.6z"/>
			<path d="M583.1,117c-6.6,6.2-13,9.4-25.1,9.4c-21.4,0-39.4-13.8-39.4-41.3c0-26,18.2-41.3,40.5-41.3c12,0,19.9,4.2,24.1,9.3v-4.2
				c0-2.4,1-3.4,3.4-3.4H597c2.4,0,3.4,1,3.4,3.4v72.5c0,2.4-1,3.4-3.4,3.4h-8.3c-2.2,0-3.5-0.8-4.2-3.4L583.1,117z M583.1,77.9
				c0-5.1-1.2-8.4-4.9-12.3c-3.5-3.5-9.3-6.9-17.2-6.9c-14,0-24.6,9.9-24.6,26.6c0,16.2,10.1,26.3,24.3,26.3c8.8,0,15-4.2,18.5-8.6
				c2.9-3.9,3.9-7.2,3.9-12.6V77.9z"/>
			<path d="M619.1,6.7c0-2.4,1-3.4,3.4-3.4h10.5c2.4,0,3.4,1,3.4,3.4v50.6c6.2-7.4,16.2-13.5,28-13.5c22.8,0,34.7,15.3,34.7,41
				c0,23.8-14.3,41.6-39.1,41.6c-9.8,0-17.2-2.5-23.6-6.7v1.7c0,2.4-1,3.4-3.4,3.4h-10.5c-2.4,0-3.4-1-3.4-3.4V6.7z M636.3,98.1
				c0,4,2,6.1,4.4,7.9c5.1,3.7,11.1,5.6,17,5.6c15.2,0,23.4-11.6,23.4-26.6c0-17.5-8.8-26.3-20.2-26.3c-11,0-17.7,7.4-21.2,13.3
				c-2,3.5-3.4,6.6-3.4,12.6V98.1z"/>
			<path d="M713.6,6.7c0-2.4,1-3.4,3.4-3.4h10.5c2.4,0,3.4,1,3.4,3.4v96.4c0,6.1,2.7,8.4,6.6,8.4c3.7,0,5.4-1.7,7.1-1.7
				c1,0,1.7,0.8,1.7,2.2v10.1c0,1.5-0.7,2.2-1.7,2.5c-2.7,1-7.6,1.7-11.6,1.7c-9.3,0-19.2-5.4-19.2-19.2V6.7z"/>
			<path d="M829.3,107.9c0.5,0.5,0.8,1.2,0.8,1.9c0,0.7-0.3,1.3-1,2c-11,11-19.1,14.7-34.6,14.7c-21.1,0-41.1-14.7-41.1-41.3
				c0-25.1,18.2-41.3,40.5-41.3c27,0,39.4,20.9,39.4,40.1v3.4c0,2.4-1,3.4-3.4,3.4h-59.3c2.2,12.8,11.3,20.9,24.8,20.9
				c11.1,0,17.2-4.2,22.4-10.1c0.8-1,1.5-1.5,2.5-1.5c0.7,0,1.3,0.3,2.2,1.2L829.3,107.9z M816.1,76.5c-2.9-12.3-12-17.9-21.9-17.9
				c-10.8,0-20.9,6.6-23.6,17.9H816.1z"/>
		</g>
		<circle class="st0" cx="846.8" cy="49.5" r="4.4"/>
		<path d="M846.5,49.1c0.3,0,0.5-0.1,0.6-0.2c0.1-0.1,0.2-0.3,0.2-0.5c0-0.2-0.1-0.4-0.2-0.5c-0.1-0.1-0.3-0.2-0.6-0.2h-0.6v1.3
			H846.5 M845.9,50v2h-1.3v-5.2h2c0.7,0,1.2,0.1,1.5,0.3c0.3,0.2,0.5,0.6,0.5,1.1c0,0.3-0.1,0.6-0.2,0.8c-0.2,0.2-0.4,0.4-0.7,0.5
			c0.2,0,0.3,0.1,0.5,0.3c0.1,0.1,0.3,0.4,0.4,0.7l0.7,1.5h-1.4l-0.6-1.3c-0.1-0.3-0.3-0.4-0.4-0.5c-0.1-0.1-0.3-0.1-0.5-0.1H845.9"
			/>
	</g>
</g>
</svg>
