<?xml version="1.0" standalone="no"?>
<!DOCTYPE svg PUBLIC "-//W3C//DTD SVG 20010904//EN"
 "http://www.w3.org/TR/2001/REC-SVG-20010904/DTD/svg10.dtd">
<svg version="1.0" xmlns="http://www.w3.org/2000/svg"
 width="313.000000pt" height="313.000000pt" viewBox="0 0 313.000000 313.000000"
 preserveAspectRatio="xMidYMid meet">
<metadata>
Created by potrace 1.11, written by Peter Selinger 2001-2013
</metadata>
<g transform="translate(0.000000,313.000000) scale(0.100000,-0.100000)"
fill="#000000" stroke="none">
<path d="M1389 2936 c-2 -2 -30 -6 -62 -10 -158 -16 -374 -81 -497 -149 -50
-27 -71 -41 -150 -94 -14 -9 -57 -49 -96 -89 -154 -155 -226 -339 -226 -574 0
-174 57 -341 150 -437 36 -36 49 -44 71 -40 14 3 73 15 131 27 121 26 330 32
419 12 188 -43 333 -147 403 -290 29 -59 33 -76 33 -147 0 -62 -5 -88 -21
-115 -26 -45 -49 -50 -59 -13 -3 15 -27 69 -51 120 -72 147 -145 209 -304 258
-76 24 -266 29 -348 10 -188 -44 -338 -190 -387 -375 -14 -54 -15 -222 -1
-283 21 -93 100 -259 139 -294 44 -39 304 -142 402 -159 17 -3 48 -9 70 -14
51 -11 201 -30 285 -36 86 -5 418 -6 450 0 14 3 47 7 73 11 164 20 282 55 437
128 207 98 388 282 464 471 81 204 71 498 -24 704 -104 223 -304 368 -585 426
-139 29 -338 27 -445 -4 -52 -15 -53 -14 -47 46 5 48 12 63 42 94 23 24 54 43
84 51 51 14 204 17 293 6 132 -18 362 -92 429 -139 24 -16 69 5 96 45 12 17
31 70 42 117 25 105 23 289 -4 393 -22 83 -42 101 -210 182 -164 79 -290 116
-510 150 -45 7 -480 17 -486 11z"/>
</g>
</svg>
