<svg xmlns="http://www.w3.org/2000/svg" viewBox="0 0 126 30" role="img" style="width: auto;height: 100%;"><title>Formidable</title><polygon points="33.2 11.1 39.1 11.1 39.1 8.1 30 8.1 30 22.2 33.2 22.2 33.2 16.9 38.4 16.9 38.4 14.1 33.2 14.1 33.2 11.1"/><path d="M44.1,12a5.3,5.3,0,1,0,5.3,5.3,5.209,5.209,0,0,0-5-5.3h-.3Zm0,7.7a2.308,2.308,0,0,1-2.3-2.2v-.2a2.391,2.391,0,0,1,2-2.5,2.31,2.31,0,0,1,2.5,2v.4a2.31,2.31,0,0,1-2,2.5Z"/><path d="M53.3,13.6V12.3H50.4v9.9h3V17.8c0-2,1.1-2.7,2.3-2.7a3.4,3.4,0,0,1,1,.1V12.3a2.2,2.2,0,0,0-.8-.1A2.9,2.9,0,0,0,53.3,13.6Z"/><path d="M69.3,12a3.372,3.372,0,0,0-3.1,1.6A2.979,2.979,0,0,0,63.3,12a3.7,3.7,0,0,0-2.9,1.4V12.3H57.5v9.9h3V16.4A1.526,1.526,0,0,1,62,14.7h.1a1.477,1.477,0,0,1,1.6,1.4v6.1h3V16.5a1.579,1.579,0,0,1,1.5-1.7h.1a1.617,1.617,0,0,1,1.6,1.4v6.1h3V15.9a3.474,3.474,0,0,0-3.1-3.8A.749.749,0,0,0,69.3,12Z"/><rect x="74.5" y="12.3" width="3" height="9.9"/><path d="M76,7.5a1.8,1.8,0,1,0,1.8,1.8A1.793,1.793,0,0,0,76,7.5Z"/><path d="M89,7.8H86v5.3c-.2-.4-1-1-2.7-1A4.823,4.823,0,0,0,78.5,17h0v.3a4.914,4.914,0,0,0,4.6,5.2h.3a3.257,3.257,0,0,0,2.7-1.2,3.4,3.4,0,0,0,.1,1h2.9c0-.2-.1-.9-.1-1.8Zm-5.2,12a2.38,2.38,0,0,1-2.3-2.2v-.3a2.264,2.264,0,1,1,4.5-.5v.4a2.391,2.391,0,0,1-2,2.5.31.31,0,0,0-.2.1Z"/><path d="M99,15.8c0-2-1.2-3.8-4.4-3.8-2.9,0-4.2,1.9-4.4,3.3l2.6.5a1.649,1.649,0,0,1,1.7-1.5,1.174,1.174,0,0,1,1.4,1h0v.1a.684.684,0,0,1-.7.7h0l-2.2.4a3.058,3.058,0,0,0-2.9,3,3.552,3.552,0,0,0,3.9,3,3.15,3.15,0,0,0,2.3-1.4,3.75,3.75,0,0,0,.1,1.1h2.7a7.569,7.569,0,0,1-.1-1.5V15.8Zm-3,2.5a1.769,1.769,0,0,1-1.4,2h-.4a1.1,1.1,0,0,1-1.2-.8v-.2a1.11,1.11,0,0,1,1.1-1.1h0l1.9-.3Z"/><path d="M106.4,12.1a3.646,3.646,0,0,0-2.9,1.2V7.8h-3V22.3h2.9V21.2a3.052,3.052,0,0,0,2.8,1.3c2.8,0,4.7-2.2,4.7-5.2S109.3,12.1,106.4,12.1Zm-.6,7.6a2.308,2.308,0,0,1-2.3-2.2v-.2a2.264,2.264,0,1,1,4.5-.5v.4a2.31,2.31,0,0,1-2,2.5Z"/><rect x="112" y="7.8" width="3" height="14.5"/><path d="M125.9,17.1c0-3.2-1.9-5.1-5-5.1a4.951,4.951,0,0,0-5,5h0v.2a5.045,5.045,0,0,0,4.8,5.3h.4a4.43,4.43,0,0,0,4.6-3.2l-2.5-.7a1.956,1.956,0,0,1-2,1.3,2.26,2.26,0,0,1-2.3-1.9h6.9A1.412,1.412,0,0,0,125.9,17.1Zm-6.9-1a1.96,1.96,0,0,1,2-1.7,1.8,1.8,0,0,1,2,1.5V16h-4Z"/><polygon points="12.9 2.4 0.8 27.6 12.9 17.7 12.9 2.4"/><polygon points="12.9 2.4 22.3 20.8 12.9 17.7 12.9 2.4" style="opacity:0.75;isolation:isolate"/><polygon points="12.9 26.4 22.3 20.8 12.9 17.7 12.9 26.4" style="opacity:0.5;isolation:isolate"/><polygon points="0.8 27.6 12.9 17.7 12.9 26.4 0.8 27.6" style="opacity:0.25;isolation:isolate"/></svg>
