<svg xmlns="http://www.w3.org/2000/svg" width="30" height="25" viewBox="0 0 30 25" style="width:100%;max-width:20px;height:auto;vertical-align:middle;" role="img"><title>Twitter</title><path d="M30,3.185a12.05,12.05,0,0,1-3.535.966,6.155,6.155,0,0,0,2.711-3.4,12.285,12.285,0,0,1-3.908,1.493A6.158,6.158,0,0,0,14.621,6.456a5.932,5.932,0,0,0,.165,1.405A17.485,17.485,0,0,1,2.1,1.429a6.16,6.16,0,0,0,1.91,8.222,6.154,6.154,0,0,1-2.788-.768v.077A6.159,6.159,0,0,0,6.158,15a6.109,6.109,0,0,1-1.625.22,6.848,6.848,0,0,1-1.164-.11,6.174,6.174,0,0,0,5.752,4.281,12.39,12.39,0,0,1-7.651,2.634A13.065,13.065,0,0,1,0,21.934,17.434,17.434,0,0,0,9.44,24.7c11.328,0,17.519-9.385,17.519-17.519,0-.263-.011-.538-.022-.8A12.469,12.469,0,0,0,30,3.185Z"/></svg>
