<svg xmlns="http://www.w3.org/2000/svg" viewBox="0 0 260 30" role="img" style="width: auto;height: 100%;"><title>Formidable Open Source</title><polygon points="33.2 11.053 39.18 11.053 39.18 8.063 30.05 8.063 30.05 22.233 33.23 22.233 33.23 16.933 38.46 16.933 38.46 14.053 33.2 14.053 33.2 11.053" style="fill:inherit"/><path d="M44.14,11.993a5.27,5.27,0,1,0,5.28,5.26,5.13,5.13,0,0,0-5-5.261Q44.282,11.989,44.14,11.993Zm0,7.74a2.25,2.25,0,0,1-2.24-2.48,2.25,2.25,0,1,1,4.48,0,2.23,2.23,0,0,1-2.24,2.48Z" style="fill:inherit"/><path d="M53.33,13.633v-1.29H50.39v9.93h3v-4.38c0-2,1.1-2.7,2.32-2.7a4.12,4.12,0,0,1,1,.1v-2.95a3,3,0,0,0-.8-.1A2.81,2.81,0,0,0,53.33,13.633Z" style="fill:inherit"/><path d="M69.32,11.993a3.41,3.41,0,0,0-3.08,1.56,3.07,3.07,0,0,0-2.94-1.56,3.46,3.46,0,0,0-2.86,1.44v-1.09h-2.9v9.93h3v-5.76a1.61,1.61,0,0,1,1.5-1.717q.072,0,.144,0a1.51,1.51,0,0,1,1.6,1.68v5.76h3v-5.74A1.61,1.61,0,0,1,68.3,14.8q.072,0,.143,0a1.51,1.51,0,0,1,1.58,1.68v5.76H73v-6.44a3.48,3.48,0,0,0-3.68-3.8Z" style="fill:inherit"/><rect x="74.57" y="12.293" width="3.04" height="9.93" style="fill:inherit"/><path d="M76.07,7.483a1.78,1.78,0,1,0,.02,0Z" style="fill:inherit"/><path d="M89.04,7.763h-3v5.32c-.24-.38-1-1-2.68-1a4.85,4.85,0,0,0-4.831,4.869q0,.156.011.311a4.92,4.92,0,0,0,4.611,5.211q.154.009.309.009a3.21,3.21,0,0,0,2.66-1.18,6.9,6.9,0,0,0,.08,1h2.92c0-.22-.08-.88-.08-1.78Zm-5.2,12a2.24,2.24,0,0,1-2.24-2.51,2.25,2.25,0,1,1,4.48,0,2.24,2.24,0,0,1-2.24,2.48Z" style="fill:inherit"/><path d="M99.04,15.833c0-2-1.18-3.84-4.4-3.84-2.92,0-4.24,1.88-4.36,3.3l2.64.54a1.6,1.6,0,0,1,1.68-1.49,1.23,1.23,0,0,1,1.444.97q.011.054.016.11a.68.68,0,0,1-.679.681H95.34l-2.34.36a3.05,3.05,0,0,0-2.94,3,3.48,3.48,0,0,0,6.24,1.62,4.77,4.77,0,0,0,.1,1.12h2.74a9.75,9.75,0,0,1-.12-1.54v-4.83Zm-3,2.5a1.71,1.71,0,0,1-1.82,2,1,1,0,0,1-1.18-1,1.1,1.1,0,0,1,1.1-1.1h.02l1.88-.3v.4Z" style="fill:inherit"/><path d="M106.46,12.053a3.57,3.57,0,0,0-2.86,1.18V7.763h-3v14.47h2.94v-1.12a3.2,3.2,0,0,0,2.8,1.34c2.78,0,4.74-2.18,4.74-5.22S109.34,12.053,106.46,12.053Zm-.66,7.68a2.26,2.26,0,0,1-2.26-2.48,2.26,2.26,0,1,1,4.5,0,2.23,2.23,0,0,1-2.24,2.48Z" style="fill:inherit"/><rect x="112.05" y="7.763" width="3.04" height="14.47" style="fill:inherit"/><path d="M125.98,17.093c0-3.2-1.9-5.1-5-5.1a5,5,0,0,0-5.006,4.994q0,.123.006.246a5.06,5.06,0,0,0,4.813,5.3q.184.009.367,0a4.46,4.46,0,0,0,4.64-3.19l-2.54-.72a1.92,1.92,0,0,1-2,1.3A2.15,2.15,0,0,1,119,18h6.92A6.111,6.111,0,0,0,125.98,17.093Zm-6.92-1a1.89,1.89,0,0,1,2-1.68,1.78,1.78,0,0,1,1.988,1.544q.009.068.012.136Z" style="fill:inherit"/><polygon points="7.697 6.274 1.292 24.079 7.697 16.31 7.697 6.274" style="fill:inherit"/><polygon points="7.697 6.274 22.43 11.505 7.697 16.31 7.697 6.274" style="fill:inherit;opacity:0.75;isolation:isolate"/><polygon points="17.246 18.257 22.387 11.505 7.654 16.31 17.246 18.257" style="fill:inherit;opacity:0.5;isolation:isolate"/><polygon points="1.249 24.079 7.654 16.31 17.246 18.257 1.249 24.079" style="fill:inherit;opacity:0.25;isolation:isolate"/><path d="M133.271,16.412A5.948,5.948,0,1,1,139.2,22.38,5.922,5.922,0,0,1,133.271,16.412Zm9.205,0a3.258,3.258,0,1,0-3.276,3.335A3.272,3.272,0,0,0,142.476,16.412Z" style="fill:inherit"/><path d="M147.7,10.6h3.959a4.188,4.188,0,0,1,4.407,4.232,4.24,4.24,0,0,1-4.427,4.291h-1.268v3.1H147.7Zm2.672,2.457v3.589h1.189a1.795,1.795,0,1,0,0-3.589Z" style="fill:inherit"/><path d="M158.6,10.6h6.884v2.5h-4.231v2.048h4.231v2.5h-4.231v2.087h4.231v2.5H158.6Z" style="fill:inherit"/><path d="M168.253,10.6h2.886l4.329,6.864V10.6h2.652V22.224h-2.672l-4.543-7.177v7.177h-2.652Z" style="fill:inherit"/><path d="M186.816,18.479l2.75.02v.059a1.288,1.288,0,0,0,1.4,1.364c.78,0,1.326-.37,1.326-1.072,0-.955-1.054-1.131-2.224-1.521-1.892-.624-3.081-1.287-3.081-3.55,0-1.95,1.7-3.354,3.959-3.354a3.509,3.509,0,0,1,3.842,3.627h-2.535v-.039a1.254,1.254,0,0,0-1.326-1.345c-.937,0-1.346.429-1.346,1.033,0,.917,1.072,1.053,2.262,1.541,1.443.585,3.14,1.189,3.14,3.588,0,1.911-1.4,3.568-4.173,3.568C188.221,22.4,186.816,21.015,186.816,18.479Z" style="fill:inherit"/><path d="M197.034,16.412a5.948,5.948,0,1,1,5.929,5.968A5.922,5.922,0,0,1,197.034,16.412Zm9.205,0a3.258,3.258,0,1,0-3.276,3.335A3.272,3.272,0,0,0,206.239,16.412Z" style="fill:inherit"/><path d="M211.562,18.206V10.6h2.672v7.7a1.489,1.489,0,0,0,1.481,1.638,1.508,1.508,0,0,0,1.521-1.638V10.6h2.672v7.605a4.173,4.173,0,1,1-8.347,0Z" style="fill:inherit"/><path d="M222.735,10.6h4.056c2.789,0,4.388,1.794,4.388,3.978A3.612,3.612,0,0,1,229,17.992l2.516,4.231h-3.022l-3.1-5.538v5.538h-2.652Zm2.652,2.457v3.2H226.6a1.653,1.653,0,0,0,1.833-1.638c0-1.014-.585-1.56-1.833-1.56Z" style="fill:inherit"/><path d="M233.654,16.412a5.994,5.994,0,0,1,11.759-1.619h-2.886a3.047,3.047,0,0,0-2.866-1.736,3.223,3.223,0,0,0-3.3,3.354,3.174,3.174,0,0,0,3.3,3.335,2.91,2.91,0,0,0,2.69-1.619h2.983a5.966,5.966,0,0,1-11.681-1.716Z" style="fill:inherit"/><path d="M247.87,10.6h6.884v2.5h-4.231v2.048h4.231v2.5h-4.231v2.087h4.231v2.5H247.87Z" style="fill:inherit"/></svg>
