<svg xmlns="http://www.w3.org/2000/svg" width="34" height="34" viewBox="0 0 34 34" style="width:100%;max-width:20px;height:auto;vertical-align:middle;" role="img"><title>GitHub</title>
  <path d="M17 1.113a16.29 16.29 0 0 0-5.148 31.747.82.82 0 0 0 1.112-.785c0-.387-.014-1.41-.022-2.77-4.53.984-5.487-2.184-5.487-2.184a4.314 4.314 0 0 0-1.81-2.382c-1.478-1.01.113-.99.113-.99a3.422 3.422 0 0 1 2.5 1.68 3.468 3.468 0 0 0 4.74 1.353 3.48 3.48 0 0 1 1.03-2.18c-3.618-.41-7.42-1.81-7.42-8.05a6.3 6.3 0 0 1 1.676-4.37 5.86 5.86 0 0 1 .16-4.31s1.368-.44 4.48 1.67a15.44 15.44 0 0 1 8.155 0c3.11-2.11 4.474-1.67 4.474-1.67a5.85 5.85 0 0 1 .162 4.31 6.286 6.286 0 0 1 1.674 4.37c0 6.26-3.81 7.636-7.437 8.04a3.888 3.888 0 0 1 1.106 3.016c0 2.178-.02 3.935-.02 4.47a.816.816 0 0 0 1.12.782A16.292 16.292 0 0 0 17 1.113z" fill-rule="evenodd"/>
</svg>
