<?xml version="1.0" encoding="utf-8"?>
<!-- Generator: Adobe Illustrator 19.2.0, SVG Export Plug-In . SVG Version: 6.00 Build 0)  -->
<svg version="1.1" id="Layer_1" xmlns="http://www.w3.org/2000/svg" xmlns:xlink="http://www.w3.org/1999/xlink" x="0px" y="0px"
	 viewBox="0 0 131.3 32.7" style="enable-background:new 0 0 131.3 32.7;" xml:space="preserve">
<g>
	<polygon style="fill:#242121;" points="34.3,12 40.3,12 40.3,9 31.1,9 31.1,23.2 34.3,23.2 34.3,17.9 39.6,17.9 39.6,15 34.3,15 	"/>
	<path style="fill:#242121;" d="M45.2,13c-3,0-5.3,2.2-5.3,5.3s2.3,5.3,5.3,5.3s5.3-2.2,5.3-5.3S48.2,13,45.2,13z M45.2,20.7
		c-1.1,0-2.2-0.8-2.2-2.5s1.1-2.5,2.2-2.5c1.2,0,2.2,0.8,2.2,2.5C47.5,19.9,46.4,20.7,45.2,20.7z"/>
	<path style="fill:#242121;" d="M54.4,14.6v-1.3h-2.9v9.9h3v-4.3c0-2,1.1-2.7,2.3-2.7c0.3,0,0.6,0,1,0.1v-3c-0.2-0.1-0.5-0.1-0.8-0.1
		C56.2,13.2,54.9,13.5,54.4,14.6z"/>
	<path style="fill:#242121;" d="M70.4,13c-1.3,0-2.3,0.4-3.1,1.6c-0.5-1-1.5-1.6-2.9-1.6c-1.1,0-2.4,0.6-2.9,1.4v-1.1h-2.9v9.9h3v-5.7
		c0-0.9,0.6-1.7,1.6-1.7c1.1,0,1.6,0.7,1.6,1.7v5.8h3v-5.7c0-0.9,0.6-1.7,1.7-1.7s1.6,0.7,1.6,1.7v5.8H74V17
		C74.1,14.1,72.3,13,70.4,13z"/>
	<rect x="75.7" y="13.3" style="fill:#242121;" width="3" height="9.9"/>
	<path style="fill:#242121;" d="M77.2,8.4c-1,0-1.8,0.8-1.8,1.8s0.8,1.8,1.8,1.8s1.8-0.8,1.8-1.8S78.2,8.4,77.2,8.4z"/>
	<path style="fill:#242121;" d="M90.1,8.7h-3V14c-0.2-0.4-1-1-2.7-1c-2.8,0-4.8,2.2-4.8,5.2c0,3.1,2.1,5.2,4.9,5.2c1.2,0,2.2-0.5,2.7-1.2
		c0,0.4,0.1,0.8,0.1,1h2.9c0-0.2-0.1-0.9-0.1-1.8V8.7z M84.9,20.7c-1.2,0-2.2-0.8-2.2-2.5s1.1-2.5,2.2-2.5s2.2,0.8,2.2,2.5
		C87.2,19.9,86.1,20.7,84.9,20.7z"/>
	<path style="fill:#242121;" d="M100.1,16.8c0-2-1.2-3.8-4.4-3.8c-2.9,0-4.2,1.9-4.4,3.3l2.6,0.5c0.1-0.7,0.6-1.5,1.7-1.5c1,0,1.5,0.5,1.5,1.1
		c0,0.3-0.2,0.6-0.7,0.7l-2.3,0.4c-1.6,0.2-2.9,1.2-2.9,3c0,1.6,1.3,3,3.4,3c1.3,0,2.3-0.6,2.8-1.4c0,0.7,0.1,1,0.1,1.1h2.7
		c0-0.1-0.1-0.8-0.1-1.5C100.1,21.7,100.1,16.8,100.1,16.8z M97.2,19.3c0,1.5-0.9,2-1.8,2c-0.8,0-1.2-0.5-1.2-1c0-0.7,0.5-1,1.1-1.1
		l1.9-0.3V19.3z"/>
	<path style="fill:#242121;" d="M107.6,13c-1.4,0-2.5,0.6-2.9,1.2V8.7h-3v14.5h2.9v-1.1c0.5,0.8,1.5,1.3,2.8,1.3c2.8,0,4.7-2.2,4.7-5.2
		C112.2,15.2,110.4,13,107.6,13z M106.9,20.7c-1.2,0-2.3-0.8-2.3-2.5s1.1-2.5,2.3-2.5c1.2,0,2.2,0.8,2.2,2.5
		C109.1,19.9,108.1,20.7,106.9,20.7z"/>
	<rect x="113.1" y="8.7" style="fill:#242121;" width="3" height="14.5"/>
	<path style="fill:#242121;" d="M127.1,18.1c0-3.2-1.9-5.1-5-5.1c-2.6,0-5,2-5,5.2c0,3.3,2.4,5.3,5.2,5.3c2.5,0,4.1-1.4,4.6-3.2l-2.5-0.7
		c-0.3,0.8-0.9,1.3-2,1.3c-1.2,0-2.2-0.8-2.3-1.9h6.9C127,18.9,127.1,18.5,127.1,18.1z M120.2,17c0.1-0.7,0.7-1.7,2-1.7
		c1.4,0,2,0.9,2,1.7H120.2z"/>
</g>
<polygon style="fill:#242121" fill-opacity="1" points="10.7,3.3 5.1,26.3 10.7,19.5 "/>
<polygon style="fill:#242121" fill-opacity="0.15" points="10.7,3.3 23.5,15.3 10.7,19.5 "/>
<polygon style="fill:#242121" fill-opacity="0.45" points="10.7,28.6 23.5,15.3 10.7,19.5 "/>
<polygon style="fill:#242121" fill-opacity="0.75" points="5.1,26.3 10.7,19.5 10.7,28.6 "/>
</svg>
