<?xml version="1.0" encoding="utf-8"?>
<!-- Generator: Adobe Illustrator 23.0.3, SVG Export Plug-In . SVG Version: 6.00 Build 0)  -->
<svg version="1.1" id="Layer_1" xmlns="http://www.w3.org/2000/svg" xmlns:xlink="http://www.w3.org/1999/xlink" x="0px" y="0px"
	 viewBox="0 0 150 32" style="enable-background:new 0 0 150 32;" xml:space="preserve">
<style type="text/css">
	.st0{fill:#FFFFFF;}
</style>
<g>
	<g>
		<g>
			<path class="st0" d="M5.3,7.2c0-0.4,0.2-0.6,0.6-0.6h12c0.4,0,0.6,0.2,0.6,0.6v1.8c0,0.3-0.1,0.4-0.4,0.4H8.4v5.4h7.7
				c0.4,0,0.6,0.2,0.6,0.6v1.6c0,0.4-0.2,0.6-0.6,0.6H8.4v7.9c0,0.4-0.2,0.6-0.6,0.6H5.9c-0.4,0-0.6-0.2-0.6-0.6L5.3,7.2L5.3,7.2z"
				/>
			<path class="st0" d="M18.2,19.5c0-4.2,2.8-6.8,6.8-6.8s6.8,2.6,6.8,6.8c0,4.5-3.1,6.8-6.8,6.8S18.2,23.9,18.2,19.5z M28.9,19.5
				c0-2.8-1.7-4.4-3.8-4.4c-2.1,0-3.8,1.6-3.8,4.4c0,2.5,1.4,4.3,3.8,4.3C27.4,23.8,28.9,22,28.9,19.5z"/>
			<path class="st0" d="M34.1,13.5c0-0.4,0.2-0.6,0.6-0.6h1.7c0.4,0,0.6,0.2,0.6,0.6v1.2c0.9-1.2,2.3-2,4.2-2c2.5,0,4,1.5,4,3.8
				c0,0.4-0.2,0.6-0.6,0.6h-1.7c-0.3,0-0.4-0.1-0.4-0.4c-0.1-0.9-0.7-1.5-1.9-1.5c-1.1,0-2,0.7-2.7,1.6c-0.6,0.9-1,1.9-1,3.6v5.1
				c0,0.4-0.2,0.6-0.6,0.6h-1.7c-0.4,0-0.6-0.2-0.6-0.6L34.1,13.5L34.1,13.5z"/>
			<path class="st0" d="M47,13.5c0-0.4,0.2-0.6,0.6-0.6h1.7c0.4,0,0.6,0.2,0.6,0.6v1.2c0.9-1.2,2-2,3.8-2c1.7,0,2.8,0.7,3.3,1.8
				c0.9-1.1,2.2-1.8,4.2-1.8c2.3,0,3.9,1.2,3.9,3.8v8.9c0,0.4-0.2,0.6-0.6,0.6h-1.7c-0.4,0-0.6-0.2-0.6-0.6v-8.5
				c0-1.2-0.5-1.8-1.6-1.8c-0.8,0-1.6,0.4-2.3,1.2c-0.7,0.8-1,1.6-1,3v6.1c0,0.4-0.2,0.6-0.6,0.6h-1.7c-0.4,0-0.6-0.2-0.6-0.6v-8.5
				c0-1.2-0.5-1.8-1.6-1.8c-0.8,0-1.6,0.4-2.2,1.2c-0.6,0.7-0.9,1.3-0.9,2.7v6.4c0,0.4-0.2,0.6-0.6,0.6h-1.7c-0.4,0-0.6-0.2-0.6-0.6
				L47,13.5L47,13.5z"/>
			<path class="st0" d="M69.5,7.1c1.1,0,1.9,0.8,1.9,1.9c0,1.1-0.8,1.9-1.9,1.9c-1.1,0-1.9-0.8-1.9-1.9C67.6,7.9,68.5,7.1,69.5,7.1z
				 M68.1,13.5c0-0.4,0.2-0.6,0.6-0.6h1.7c0.4,0,0.6,0.2,0.6,0.6v11.9c0,0.4-0.2,0.6-0.6,0.6h-1.7c-0.4,0-0.6-0.2-0.6-0.6V13.5z"/>
			<path class="st0" d="M83.8,24.8c-1.1,0.9-2,1.4-4,1.4c-3.3,0-6-2.3-6-6.8c0-4.3,2.9-6.8,6.3-6.8c1.6,0,2.9,0.5,3.7,1.4V6.6
				c0-0.4,0.2-0.6,0.6-0.6h1.7c0.4,0,0.6,0.2,0.6,0.6v18.8c0,0.4-0.2,0.6-0.5,0.6h-1.4c-0.4,0-0.6-0.1-0.7-0.6L83.8,24.8z
				 M83.8,18.4c0-0.9-0.2-1.4-0.7-2c-0.6-0.7-1.5-1.2-2.7-1.2c-2.1,0-3.7,1.7-3.7,4.4c0,2.5,1.4,4.3,3.6,4.3c1.2,0,2.2-0.5,2.8-1.2
				c0.5-0.7,0.7-1.2,0.7-2.2L83.8,18.4L83.8,18.4z"/>
			<path class="st0" d="M99.8,24.7c-1.1,1-2.1,1.5-4.1,1.5c-3.5,0-6.5-2.3-6.5-6.8c0-4.3,3-6.8,6.6-6.8c2,0,3.3,0.7,4,1.5v-0.7
				c0-0.4,0.2-0.6,0.6-0.6h1.7c0.4,0,0.6,0.2,0.6,0.6v11.9c0,0.4-0.2,0.6-0.6,0.6h-1.4c-0.4,0-0.6-0.1-0.7-0.6L99.8,24.7z
				 M99.8,18.3c0-0.8-0.2-1.4-0.8-2c-0.6-0.6-1.5-1.1-2.8-1.1c-2.3,0-4,1.6-4,4.4c0,2.7,1.7,4.3,4,4.3c1.4,0,2.5-0.7,3-1.4
				c0.5-0.6,0.6-1.2,0.6-2.1V18.3z"/>
			<path class="st0" d="M105.7,6.6c0-0.4,0.2-0.6,0.6-0.6h1.7c0.4,0,0.6,0.2,0.6,0.6v8.3c1-1.2,2.7-2.2,4.6-2.2
				c3.7,0,5.7,2.5,5.7,6.7c0,3.9-2.3,6.8-6.4,6.8c-1.6,0-2.8-0.4-3.9-1.1v0.3c0,0.4-0.2,0.6-0.6,0.6h-1.7c-0.4,0-0.6-0.2-0.6-0.6
				V6.6z M108.6,21.6c0,0.7,0.3,1,0.7,1.3c0.8,0.6,1.8,0.9,2.8,0.9c2.5,0,3.8-1.9,3.8-4.4c0-2.9-1.4-4.3-3.3-4.3
				c-1.8,0-2.9,1.2-3.5,2.2c-0.3,0.6-0.6,1.1-0.6,2.1L108.6,21.6L108.6,21.6z"/>
			<path class="st0" d="M121.2,6.6c0-0.4,0.2-0.6,0.6-0.6h1.7c0.4,0,0.6,0.2,0.6,0.6v15.8c0,1,0.4,1.4,1.1,1.4
				c0.6,0,0.9-0.3,1.2-0.3c0.2,0,0.3,0.1,0.3,0.4v1.7c0,0.2-0.1,0.4-0.3,0.4c-0.4,0.2-1.2,0.3-1.9,0.3c-1.5,0-3.2-0.9-3.2-3.2
				L121.2,6.6L121.2,6.6z"/>
			<path class="st0" d="M140.2,23.2c0.1,0.1,0.1,0.2,0.1,0.3c0,0.1-0.1,0.2-0.2,0.3c-1.8,1.8-3.1,2.4-5.7,2.4
				c-3.5,0-6.7-2.4-6.7-6.8c0-4.1,3-6.8,6.6-6.8c4.4,0,6.5,3.4,6.5,6.6v0.6c0,0.4-0.2,0.6-0.6,0.6h-9.7c0.4,2.1,1.9,3.4,4.1,3.4
				c1.8,0,2.8-0.7,3.7-1.7c0.1-0.2,0.2-0.2,0.4-0.2c0.1,0,0.2,0.1,0.4,0.2L140.2,23.2z M138.1,18c-0.5-2-2-2.9-3.6-2.9
				c-1.8,0-3.4,1.1-3.9,2.9H138.1z"/>
		</g>
		<g>
			<path class="st0" d="M140.8,13.6h0.2c0,0.2,0.1,0.3,0.3,0.3c0.2,0,0.3-0.1,0.3-0.2c0-0.1-0.1-0.2-0.4-0.3
				c-0.3-0.1-0.4-0.2-0.4-0.4c0-0.2,0.2-0.4,0.5-0.4c0.3,0,0.5,0.2,0.5,0.4h-0.2c0-0.2-0.1-0.3-0.3-0.3c-0.2,0-0.3,0.1-0.3,0.2
				c0,0.1,0.1,0.2,0.3,0.2c0.3,0.1,0.5,0.1,0.5,0.4c0,0.2-0.2,0.4-0.5,0.4C141,14.1,140.8,13.9,140.8,13.6z"/>
			<path class="st0" d="M142.2,12.7h0.3l0.3,0.9c0.1,0.2,0.1,0.3,0.1,0.3h0c0,0,0-0.1,0.1-0.3l0.3-0.9h0.3v1.4h-0.2l0-1.2h0
				c0,0,0,0.1-0.1,0.3l-0.3,0.9h-0.2l-0.3-0.9c-0.1-0.2-0.1-0.3-0.1-0.3h0v1.2h-0.2L142.2,12.7L142.2,12.7z"/>
		</g>
	</g>
</g>
</svg>
