<?xml version="1.0" encoding="utf-8"?>
<!-- Generator: Adobe Illustrator 23.0.3, SVG Export Plug-In . SVG Version: 6.00 Build 0)  -->
<svg version="1.1" id="Layer_1" xmlns="http://www.w3.org/2000/svg" xmlns:xlink="http://www.w3.org/1999/xlink" x="0px" y="0px"
	 width="150px" height="32px" viewBox="0 0 150 32" style="enable-background:new 0 0 150 32;" xml:space="preserve">
<g>
	<g>
		<g>
			<path d="M8,7.5C8,7.2,8.1,7,8.5,7H20c0.4,0,0.5,0.2,0.5,0.5v1.7c0,0.3-0.1,0.4-0.4,0.4h-9.3v5.2h7.4c0.4,0,0.5,0.2,0.5,0.5v1.5
				c0,0.4-0.2,0.5-0.5,0.5h-7.4V25c0,0.4-0.2,0.5-0.5,0.5H8.5C8.1,25.6,8,25.4,8,25L8,7.5L8,7.5z"/>
			<path d="M20.4,19.3c0-4,2.7-6.5,6.5-6.5s6.5,2.5,6.5,6.5c0,4.3-3,6.5-6.5,6.5S20.4,23.6,20.4,19.3z M30.5,19.4
				c0-2.7-1.6-4.2-3.7-4.2s-3.7,1.5-3.7,4.2c0,2.4,1.4,4.1,3.7,4.1S30.5,21.8,30.5,19.4z"/>
			<path d="M35.6,13.6c0-0.4,0.2-0.5,0.5-0.5h1.6c0.4,0,0.5,0.2,0.5,0.5v1.1c0.9-1.1,2.2-1.9,4-1.9c2.4,0,3.9,1.5,3.9,3.7
				c0,0.4-0.2,0.5-0.5,0.5H44c-0.3,0-0.4-0.1-0.4-0.4c-0.1-0.9-0.7-1.5-1.8-1.5c-1.1,0-2,0.7-2.5,1.5c-0.6,0.8-0.9,1.8-0.9,3.4V25
				c0,0.4-0.2,0.5-0.5,0.5h-1.6c-0.4,0-0.5-0.2-0.5-0.5L35.6,13.6L35.6,13.6z"/>
			<path d="M48,13.6c0-0.4,0.2-0.5,0.5-0.5h1.6c0.4,0,0.5,0.2,0.5,0.5v1.1c0.8-1.2,1.9-1.9,3.7-1.9c1.6,0,2.7,0.6,3.2,1.8
				c0.8-1,2.1-1.8,4-1.8c2.2,0,3.7,1.2,3.7,3.7V25c0,0.4-0.2,0.5-0.5,0.5h-1.6c-0.4,0-0.5-0.2-0.5-0.5v-8.1c0-1.1-0.5-1.7-1.6-1.7
				c-0.8,0-1.5,0.4-2.2,1.1c-0.7,0.8-1,1.5-1,2.9V25c0,0.4-0.2,0.5-0.5,0.5h-1.6c-0.4,0-0.5-0.2-0.5-0.5v-8.2c0-1.1-0.5-1.7-1.6-1.7
				c-0.7,0-1.5,0.4-2.1,1.1c-0.6,0.7-0.8,1.2-0.8,2.6V25c0,0.4-0.2,0.5-0.5,0.5h-1.6c-0.4,0-0.5-0.2-0.5-0.5L48,13.6L48,13.6z"/>
			<path d="M69.6,7.5c1,0,1.8,0.8,1.8,1.8c0,1-0.8,1.8-1.8,1.8c-1,0-1.8-0.8-1.8-1.8C67.7,8.3,68.5,7.5,69.6,7.5z M68.2,13.6
				c0-0.4,0.2-0.5,0.5-0.5h1.6c0.4,0,0.5,0.2,0.5,0.5V25c0,0.4-0.2,0.5-0.5,0.5h-1.6c-0.4,0-0.5-0.2-0.5-0.5V13.6z"/>
			<path d="M83.3,24.5c-1,0.9-1.9,1.4-3.8,1.4c-3.1,0-5.8-2.2-5.8-6.5c0-4.1,2.8-6.5,6.1-6.5c1.6,0,2.8,0.5,3.5,1.3V7
				c0-0.4,0.2-0.5,0.5-0.5h1.6C85.8,6.5,86,6.6,86,7v18c0,0.4-0.2,0.5-0.5,0.5h-1.3c-0.4,0-0.6-0.1-0.7-0.5L83.3,24.5z M83.3,18.3
				c0-0.8-0.2-1.4-0.7-2c-0.6-0.7-1.5-1.2-2.5-1.2c-2,0-3.5,1.6-3.5,4.2c0,2.4,1.4,4.1,3.5,4.1c1.2,0,2.1-0.5,2.7-1.2
				c0.5-0.6,0.6-1.2,0.6-2.1L83.3,18.3L83.3,18.3z"/>
			<path d="M98.6,24.3c-1,1-2,1.5-4,1.5c-3.4,0-6.2-2.2-6.2-6.5c0-4.1,2.9-6.5,6.4-6.5c1.9,0,3.1,0.7,3.8,1.5v-0.7
				c0-0.4,0.2-0.5,0.5-0.5h1.6c0.4,0,0.5,0.2,0.5,0.5V25c0,0.4-0.2,0.5-0.5,0.5h-1.3c-0.3,0-0.6-0.1-0.7-0.5L98.6,24.3z M98.6,18.2
				c0-0.8-0.2-1.3-0.8-1.9c-0.6-0.6-1.5-1.1-2.7-1.1c-2.2,0-3.9,1.6-3.9,4.2c0,2.5,1.6,4.1,3.8,4.1c1.4,0,2.4-0.7,2.9-1.4
				c0.5-0.6,0.6-1.1,0.6-2V18.2z"/>
			<path d="M104.3,7c0-0.4,0.2-0.5,0.5-0.5h1.6c0.4,0,0.5,0.2,0.5,0.5v8c1-1.2,2.5-2.1,4.4-2.1c3.6,0,5.5,2.4,5.5,6.4
				c0,3.7-2.3,6.6-6.2,6.6c-1.5,0-2.7-0.4-3.7-1.1V25c0,0.4-0.2,0.5-0.5,0.5h-1.6c-0.4,0-0.5-0.2-0.5-0.5V7z M107,21.4
				c0,0.6,0.3,1,0.7,1.2c0.8,0.6,1.8,0.9,2.7,0.9c2.4,0,3.7-1.8,3.7-4.2c0-2.8-1.4-4.1-3.2-4.1c-1.7,0-2.8,1.2-3.3,2.1
				c-0.3,0.6-0.5,1-0.5,2L107,21.4L107,21.4z"/>
			<path d="M119.2,7c0-0.4,0.2-0.5,0.5-0.5h1.6c0.4,0,0.5,0.2,0.5,0.5v15.2c0,1,0.4,1.3,1,1.3c0.6,0,0.8-0.3,1.1-0.3
				c0.2,0,0.3,0.1,0.3,0.3v1.6c0,0.2-0.1,0.3-0.3,0.4c-0.4,0.2-1.2,0.3-1.8,0.3c-1.5,0-3-0.8-3-3L119.2,7L119.2,7z"/>
			<path d="M137.4,22.9c0.1,0.1,0.1,0.2,0.1,0.3c0,0.1-0.1,0.2-0.2,0.3c-1.7,1.7-3,2.3-5.4,2.3c-3.3,0-6.5-2.3-6.5-6.5
				c0-4,2.9-6.5,6.4-6.5c4.2,0,6.2,3.3,6.2,6.3v0.5c0,0.4-0.2,0.5-0.5,0.5h-9.3c0.3,2,1.8,3.3,3.9,3.3c1.8,0,2.7-0.7,3.5-1.6
				c0.1-0.2,0.2-0.2,0.4-0.2c0.1,0,0.2,0.1,0.3,0.2L137.4,22.9z M135.3,18c-0.5-1.9-1.9-2.8-3.4-2.8c-1.7,0-3.3,1-3.7,2.8H135.3z"/>
		</g>
		<g>
			<path d="M138,13.7h0.2c0,0.2,0.1,0.3,0.3,0.3c0.2,0,0.3-0.1,0.3-0.2c0-0.1-0.1-0.2-0.4-0.2c-0.3-0.1-0.4-0.2-0.4-0.4
				c0-0.2,0.2-0.4,0.5-0.4c0.3,0,0.5,0.2,0.5,0.4h-0.2c0-0.2-0.1-0.2-0.3-0.2c-0.2,0-0.3,0.1-0.3,0.2c0,0.1,0.1,0.2,0.2,0.2
				c0.3,0.1,0.5,0.1,0.5,0.4c0,0.2-0.2,0.4-0.5,0.4C138.2,14.2,138,14,138,13.7z"/>
			<path d="M139.3,12.8h0.3l0.3,0.9C140,13.9,140,14,140,14h0c0,0,0-0.1,0.1-0.3l0.3-0.9h0.3v1.3h-0.2l0-1.1h0c0,0,0,0.1-0.1,0.3
				l-0.3,0.9h-0.2l-0.3-0.9c-0.1-0.2-0.1-0.3-0.1-0.3h0v1.1h-0.2L139.3,12.8L139.3,12.8z"/>
		</g>
	</g>
</g>
</svg>
