<?xml version="1.0" encoding="utf-8"?>
<!-- Generator: Adobe Illustrator 23.0.3, SVG Export Plug-In . SVG Version: 6.00 Build 0)  -->
<svg version="1.1" id="Layer_1" xmlns="http://www.w3.org/2000/svg" xmlns:xlink="http://www.w3.org/1999/xlink" x="0px" y="0px"
	 width="150" height="32" viewBox="0 0 139.4 32" style="enable-background:new 0 0 139.4 32;" xml:space="preserve">
<style type="text/css">
	.st0{fill:#FFFFFF;}
</style>
<g>
	<g>
		<g>
			<path class="st0" d="M0.7,7.2c0-0.4,0.2-0.6,0.6-0.6h12c0.4,0,0.6,0.2,0.6,0.6V9c0,0.3-0.1,0.4-0.4,0.4H3.8v5.4h7.7
				c0.4,0,0.6,0.2,0.6,0.6V17c0,0.4-0.2,0.6-0.6,0.6H3.8v7.9c0,0.4-0.2,0.6-0.6,0.6H1.3c-0.4,0-0.6-0.2-0.6-0.6V7.2L0.7,7.2z"/>
			<path class="st0" d="M13.6,19.5c0-4.2,2.8-6.8,6.8-6.8s6.8,2.6,6.8,6.8c0,4.5-3.1,6.8-6.8,6.8S13.6,23.9,13.6,19.5z M24.3,19.5
				c0-2.8-1.7-4.4-3.8-4.4s-3.8,1.6-3.8,4.4c0,2.5,1.4,4.3,3.8,4.3C22.8,23.8,24.3,22,24.3,19.5z"/>
			<path class="st0" d="M29.5,13.5c0-0.4,0.2-0.6,0.6-0.6h1.7c0.4,0,0.6,0.2,0.6,0.6v1.2c0.9-1.2,2.3-2,4.2-2c2.5,0,4,1.5,4,3.8
				c0,0.4-0.2,0.6-0.6,0.6h-1.7c-0.3,0-0.4-0.1-0.4-0.4c-0.1-0.9-0.7-1.5-1.9-1.5c-1.1,0-2,0.7-2.7,1.6c-0.6,0.9-1,1.9-1,3.6v5.1
				c0,0.4-0.2,0.6-0.6,0.6H30c-0.4,0-0.6-0.2-0.6-0.6L29.5,13.5L29.5,13.5z"/>
			<path class="st0" d="M42.4,13.5c0-0.4,0.2-0.6,0.6-0.6h1.7c0.4,0,0.6,0.2,0.6,0.6v1.2c0.9-1.2,2-2,3.8-2c1.7,0,2.8,0.7,3.3,1.8
				c0.9-1.1,2.2-1.8,4.2-1.8c2.3,0,3.9,1.2,3.9,3.8v8.9c0,0.4-0.2,0.6-0.6,0.6h-1.7c-0.4,0-0.6-0.2-0.6-0.6v-8.5
				c0-1.2-0.5-1.8-1.6-1.8c-0.8,0-1.6,0.4-2.3,1.2c-0.7,0.8-1,1.6-1,3v6.1c0,0.4-0.2,0.6-0.6,0.6h-1.7c-0.4,0-0.6-0.2-0.6-0.6v-8.5
				c0-1.2-0.5-1.8-1.6-1.8c-0.8,0-1.6,0.4-2.2,1.2c-0.6,0.7-0.9,1.3-0.9,2.7v6.4c0,0.4-0.2,0.6-0.6,0.6h-1.7c-0.4,0-0.6-0.2-0.6-0.6
				L42.4,13.5L42.4,13.5z"/>
			<path class="st0" d="M64.9,7.1c1.1,0,1.9,0.8,1.9,1.9s-0.8,1.9-1.9,1.9S63,10.1,63,9S63.9,7.1,64.9,7.1z M63.5,13.5
				c0-0.4,0.2-0.6,0.6-0.6h1.7c0.4,0,0.6,0.2,0.6,0.6v11.9c0,0.4-0.2,0.6-0.6,0.6h-1.7c-0.4,0-0.6-0.2-0.6-0.6V13.5z"/>
			<path class="st0" d="M79.2,24.8c-1.1,0.9-2,1.4-4,1.4c-3.3,0-6-2.3-6-6.8c0-4.3,2.9-6.8,6.3-6.8c1.6,0,2.9,0.5,3.7,1.4V6.6
				c0-0.4,0.2-0.6,0.6-0.6h1.7c0.4,0,0.6,0.2,0.6,0.6v18.8c0,0.4-0.2,0.6-0.5,0.6h-1.4c-0.4,0-0.6-0.1-0.7-0.6L79.2,24.8z
				 M79.2,18.4c0-0.9-0.2-1.4-0.7-2c-0.6-0.7-1.5-1.2-2.7-1.2c-2.1,0-3.7,1.7-3.7,4.4c0,2.5,1.4,4.3,3.6,4.3c1.2,0,2.2-0.5,2.8-1.2
				c0.5-0.7,0.7-1.2,0.7-2.2L79.2,18.4L79.2,18.4z"/>
			<path class="st0" d="M95.2,24.7c-1.1,1-2.1,1.5-4.1,1.5c-3.5,0-6.5-2.3-6.5-6.8c0-4.3,3-6.8,6.6-6.8c2,0,3.3,0.7,4,1.5v-0.7
				c0-0.4,0.2-0.6,0.6-0.6h1.7c0.4,0,0.6,0.2,0.6,0.6v11.9c0,0.4-0.2,0.6-0.6,0.6h-1.4c-0.4,0-0.6-0.1-0.7-0.6L95.2,24.7z
				 M95.2,18.3c0-0.8-0.2-1.4-0.8-2c-0.6-0.6-1.5-1.1-2.8-1.1c-2.3,0-4,1.6-4,4.4c0,2.7,1.7,4.3,4,4.3c1.4,0,2.5-0.7,3-1.4
				c0.5-0.6,0.6-1.2,0.6-2.1C95.2,20.4,95.2,18.3,95.2,18.3z"/>
			<path class="st0" d="M101.1,6.6c0-0.4,0.2-0.6,0.6-0.6h1.7c0.4,0,0.6,0.2,0.6,0.6v8.3c1-1.2,2.7-2.2,4.6-2.2
				c3.7,0,5.7,2.5,5.7,6.7c0,3.9-2.3,6.8-6.4,6.8c-1.6,0-2.8-0.4-3.9-1.1v0.3c0,0.4-0.2,0.6-0.6,0.6h-1.7c-0.4,0-0.6-0.2-0.6-0.6
				C101.1,25.4,101.1,6.6,101.1,6.6z M104,21.6c0,0.7,0.3,1,0.7,1.3c0.8,0.6,1.8,0.9,2.8,0.9c2.5,0,3.8-1.9,3.8-4.4
				c0-2.9-1.4-4.3-3.3-4.3c-1.8,0-2.9,1.2-3.5,2.2c-0.3,0.6-0.6,1.1-0.6,2.1L104,21.6L104,21.6z"/>
			<path class="st0" d="M116.6,6.6c0-0.4,0.2-0.6,0.6-0.6h1.7c0.4,0,0.6,0.2,0.6,0.6v15.8c0,1,0.4,1.4,1.1,1.4
				c0.6,0,0.9-0.3,1.2-0.3c0.2,0,0.3,0.1,0.3,0.4v1.7c0,0.2-0.1,0.4-0.3,0.4c-0.4,0.2-1.2,0.3-1.9,0.3c-1.5,0-3.2-0.9-3.2-3.2
				L116.6,6.6L116.6,6.6z"/>
			<path class="st0" d="M135.6,23.2c0.1,0.1,0.1,0.2,0.1,0.3c0,0.1-0.1,0.2-0.2,0.3c-1.8,1.8-3.1,2.4-5.7,2.4
				c-3.5,0-6.7-2.4-6.7-6.8c0-4.1,3-6.8,6.6-6.8c4.4,0,6.5,3.4,6.5,6.6v0.6c0,0.4-0.2,0.6-0.6,0.6h-9.7c0.4,2.1,1.9,3.4,4.1,3.4
				c1.8,0,2.8-0.7,3.7-1.7c0.1-0.2,0.2-0.2,0.4-0.2c0.1,0,0.2,0.1,0.4,0.2L135.6,23.2z M133.5,18c-0.5-2-2-2.9-3.6-2.9
				c-1.8,0-3.4,1.1-3.9,2.9H133.5z"/>
		</g>
		<g>
			<path class="st0" d="M136.2,13.6h0.2c0,0.2,0.1,0.3,0.3,0.3s0.3-0.1,0.3-0.2c0-0.1-0.1-0.2-0.4-0.3c-0.3-0.1-0.4-0.2-0.4-0.4
				s0.2-0.4,0.5-0.4s0.5,0.2,0.5,0.4H137c0-0.2-0.1-0.3-0.3-0.3s-0.3,0.1-0.3,0.2c0,0.1,0.1,0.2,0.3,0.2c0.3,0.1,0.5,0.1,0.5,0.4
				c0,0.2-0.2,0.4-0.5,0.4C136.4,14.1,136.2,13.9,136.2,13.6z"/>
			<path class="st0" d="M137.6,12.7h0.3l0.3,0.9c0.1,0.2,0.1,0.3,0.1,0.3l0,0c0,0,0-0.1,0.1-0.3l0.3-0.9h0.3v1.4h-0.2v-1.2l0,0
				c0,0,0,0.1-0.1,0.3l-0.3,0.9h-0.2l-0.3-0.9c-0.1-0.2-0.1-0.3-0.1-0.3l0,0v1.2h-0.2L137.6,12.7L137.6,12.7z"/>
		</g>
	</g>
</g>
</svg>
