
<svg width="195px" height="164px" viewBox="0 0 195 164" version="1.1" xmlns="http://www.w3.org/2000/svg" xmlns:xlink="http://www.w3.org/1999/xlink">
    <g id="Page-2" stroke="none" stroke-width="1" fill="none" fill-rule="evenodd">
        <g id="Documentation-Desktop-Copy">
            <g id="sidebar-bg">
                <g id="Group" transform="translate(-37.000000, -140.000000)">
                    <path d="M153.816475,28.4111176 L42.5981381,77.6375464 C34.8176821,81.0812597 29.8,88.7893467 29.8,97.2978516 L29.8,208.605148 C29.8,217.116616 34.8211352,224.826804 42.6056091,228.268759 L145.13777,273.604008 C150.668303,276.049369 156.972944,276.052659 162.506026,273.613071 L265.006815,228.419516 C272.802324,224.982403 277.832949,217.26645 277.832949,208.746843 L277.832949,97.2978516 C277.832949,88.7893467 272.815267,81.0812597 265.034811,77.6375464 L153.816475,28.4111176 Z" id="Polygon-Copy-6" stroke="#FC6986" stroke-width="12" fill="#FC6986"></path>
                    <text id="S" font-family="Helvetica" font-size="60" font-weight="normal" letter-spacing="-4" fill="#3D4247">
                        <tspan x="122" y="236">S</tspan>
                    </text>
                    <path d="M153.816475,15.9830419 L38.6736621,66.7927103 C26.3510018,72.2303948 18.4,84.4296919 18.4,97.8987813 L18.4,208.101219 C18.4,221.570308 26.3510018,233.769605 38.6736621,239.20729 L140.090137,283.959865 C148.834277,287.818438 158.798673,287.818438 167.542813,283.959865 L268.959287,239.20729 C281.281948,233.769605 289.232949,221.570308 289.232949,208.101219 L289.232949,97.8987813 C289.232949,84.4296919 281.281948,72.2303948 268.959287,66.7927103 L153.816475,15.9830419 Z" id="Polygon-Copy-5" stroke="#FC6986" stroke-width="12" opacity="0.7"></path>
                    <path d="M172.470462,9.95206593 C160.592665,4.68264469 147.040285,4.68264469 135.162487,9.95206593 L33.3460127,55.1215437 C16.7188498,62.4979557 6,78.9795354 6,97.1694777 L6,206.990078 C6,225.209556 16.7532637,241.712073 33.4204778,249.070969 L135.236953,294.0249 C147.072177,299.250379 160.560772,299.250379 172.395997,294.0249 L274.212472,249.070969 C290.879686,241.712073 301.632949,225.209556 301.632949,206.990078 L301.632949,97.1694777 C301.632949,78.9795354 290.9141,62.4979557 274.286937,55.1215437 L172.470462,9.95206593 Z" id="Polygon-Copy" stroke="#FC6986" stroke-width="12" opacity="0.4"></path>
                </g>
            </g>
        </g>
    </g>
</svg>