<?xml version="1.0" encoding="UTF-8"?>
<svg width="360px" height="357px" viewBox="0 0 360 357" version="1.1" xmlns="http://www.w3.org/2000/svg" xmlns:xlink="http://www.w3.org/1999/xlink">
    <!-- Generator: Sketch 54.1 (76490) - https://sketchapp.com -->
    <title>Badge Copy 22</title>
    <desc>Created with Sketch.</desc>
    <g id="Page-1" stroke="none" stroke-width="1" fill="none" fill-rule="evenodd">
        <g id="Badge-Copy-22" transform="translate(0.000000, -5.000000)">
            <path d="M205.102023,11.2363535 L322.488896,63.3395595 C345.038295,73.3483105 359.573748,95.7029453 359.573748,120.373788 L359.573748,246.826212 C359.573748,271.497055 345.038295,293.85169 322.488896,303.86044 L205.102023,355.963647 C188.983472,363.118008 170.590276,363.118008 154.471725,355.963647 L37.0848513,303.86044 C14.5354522,293.85169 1.10198545e-13,271.497055 8.52651283e-14,246.826212 L0,120.373788 C-1.3977362e-14,95.7029453 14.5354522,73.3483105 37.0848513,63.3395595 L154.471725,11.2363535 C170.590276,4.08199178 188.983472,4.08199178 205.102023,11.2363535 Z" id="Polygon-Copy-4" fill="#202020"></path>
            <path d="M196.265748,30.7460756 C185.768621,26.1115113 173.805127,26.1115113 163.308,30.7460756 L45.921126,82.5733052 C31.1378412,89.1002419 21.6,103.737357 21.6,119.897382 L21.6,247.302618 C21.6,263.462643 31.1378412,278.099758 45.921126,284.626695 L163.308,336.453924 C173.805127,341.088489 185.768621,341.088489 196.265748,336.453924 L313.652622,284.626695 C328.435906,278.099758 337.973748,263.462643 337.973748,247.302618 L337.973748,119.897382 C337.973748,103.737357 328.435906,89.1002419 313.652622,82.5733052 L196.265748,30.7460756 Z" id="Polygon-Copy-5" stroke="#8196FF" stroke-width="14.4" opacity="0.7"></path>
            <path d="M202.181044,17.817226 C187.922326,11.4883676 171.651422,11.4883676 157.392704,17.817226 L40.00583,69.9204321 C20.0582847,78.7743272 7.2,98.549581 7.2,120.373788 L7.2,246.826212 C7.2,268.650419 20.0582847,288.425673 40.00583,297.279568 L157.392704,349.382774 C171.651422,355.711632 187.922326,355.711632 202.181044,349.382774 L319.567918,297.279568 C339.515463,288.425673 352.373748,268.650419 352.373748,246.826212 L352.373748,120.373788 C352.373748,98.549581 339.515463,78.7743272 319.567918,69.9204321 L202.181044,17.817226 Z" id="Polygon-Copy" stroke="#8196FF" stroke-width="14.4"></path>
            <g id="Eagle" transform="translate(60.000000, 105.000000)">
                <path d="M160.4548,119.7871 C160.4548,121.1181 161.5338,122.1961 162.8638,122.1961 C164.1938,122.1961 165.2728,121.1181 165.2728,119.7871 C165.2728,118.4561 164.1938,117.3781 162.8638,117.3781 L160.4548,117.3781 L160.4548,119.7871 Z" id="Fill-7" fill="#80A7FF"></path>
                <path d="M100.089,125.1479 L133.559,158.6179 L133.559,169.4649 L144.758,158.5369 L119.747,133.5239 L119.747,120.0989 L131.261,131.6139 L161.569,131.7009 L180,150.1309 L180,130.5139 C180,123.8659 177.359,117.4899 172.658,112.7889 L120,60.1309 L67.071,7.2019 C62.544,2.6739 56.403,0.1309 50,0.1309 C43.597,0.1309 37.456,2.6739 32.929,7.2019 L0,40.1309 L19.755,40.1309 C25.113,34.7729 33.8,34.7729 39.158,40.1309 L39.392,40.3649 L79.628,80.6009 L59.853,80.6009 L39.392,60.1399 L39.392,69.4209 C39.392,76.0519 42.026,82.4109 46.714,87.0989 L60.059,100.4439 L79.834,120.2179 C79.834,124.3659 81.482,128.3439 84.415,131.2769 L100.054,146.9179 L110.079,156.9419 L110.002,166.2309 L119.451,157.9949 L119.451,168.6479 L130.249,158.3669 L100.089,128.2069" id="Fill-1" fill="#5F8AFF"></path>
                <path d="M120.0002,60.1309 L172.9292,7.2019 C177.4562,2.6739 183.5972,0.1309 190.0002,0.1309 C196.4032,0.1309 202.5432,2.6739 207.0712,7.2019 L240.0002,40.1309 L220.2452,40.1309 C214.8872,34.7729 206.2002,34.7729 200.8422,40.1309 L200.6082,40.3649 L150.4212,90.5519" id="Fill-4" fill="#3B7CED"></path>
                <path d="M150.4211,90.5518 L120.0001,60.1308 L67.0711,7.2018 C62.5441,2.6748 56.4031,0.1308 50.0001,0.1308 C48.3061,0.1308 46.6321,0.3138 45.0001,0.6598 C49.5381,1.6208 53.7411,3.8718 57.0711,7.2018 L110.0001,60.1308 L140.3911,90.5218 L150.4211,90.5518 Z" id="Fill-17" fill="#80A7FF"></path>
                <path d="M57.3991,37.3643 C47.8181,27.7833 32.2851,27.7833 22.7051,37.3643 L21.1101,38.9583 C26.4901,34.8203 34.2291,35.2023 39.1581,40.1313 L39.2501,40.2223 L39.3921,40.2223 L79.6281,80.6003 L100.6471,80.6123 L59.9151,39.8803 L57.3991,37.3643 Z" id="Fill-9" fill="#3B7CED"></path>
                <path d="M182.5412,37.3643 C192.1222,27.7833 207.6552,27.7833 217.2352,37.3643 L218.8302,38.9583 C213.4502,34.8203 205.7102,35.2023 200.7822,40.1313 L200.6902,40.2223 L200.5482,40.2223 L150.3912,90.5223 L139.8872,80.0183 L180.0242,39.8803 L182.5412,37.3643 Z" id="Fill-11" fill="#1969DD"></path>
                <path d="M70.655,111.0396 L79.834,120.2186 C79.834,124.3666 81.482,128.3446 84.415,131.2776 L100.054,146.9176 L110.079,156.9416 L110.002,166.2316 L119.451,157.9956 L119.451,168.6486 L130.249,158.3666 L100.089,128.2066 L101.567,126.6256 L133.559,158.6186 L133.559,169.4646 L144.759,158.5366 L119.747,133.5246 L119.747,120.0986 C113.946,114.2986 106.079,111.0396 97.876,111.0396 L70.655,111.0396 Z" id="Fill-13" fill="#1969DD"></path>
                <path d="M130.2487,158.3667 L100.0887,128.2067 L100.0887,128.2067 L82.9217,111.0397 L70.6547,111.0397 L79.8337,120.2187 C79.8337,124.3667 81.4817,128.3447 84.4147,131.2777 L100.0547,146.9177 L110.0797,156.9417 L110.0017,166.2317 L119.4517,157.9947 L119.4517,168.6487 L130.2487,158.3667 Z" id="Fill-15" fill="#3B7CED"></path>
                <path d="M48.8913,89.2759 L91.9723,89.2759 L100.6473,80.6009 L59.8533,80.6009 L39.3923,60.1399 L39.3923,69.4209 C39.3923,76.0519 42.0263,82.4109 46.7143,87.0989 L48.8913,89.2759 Z" id="Fill-20" fill="#80A7FF"></path>
            </g>
        </g>
    </g>
</svg>