<?xml version="1.0" encoding="utf-8"?>
<!-- Generator: Adobe Illustrator 23.0.3, SVG Export Plug-In . SVG Version: 6.00 Build 0)  -->
<svg version="1.1" id="Layer_1" 
	xmlns="http://www.w3.org/2000/svg" 
	xmlns:xlink="http://www.w3.org/1999/xlink" x="0px" y="0px" viewBox="0 0 100 100" style="enable-background:new 0 0 100 100;" xml:space="preserve">
	<style type="text/css">
	.st0{fill:#000000;}
	</style>
	<g>
		<g>
			<path class="st0" d="M75.2,12.6h0.3c0,0.3,0.2,0.5,0.5,0.5c0.3,0,0.5-0.1,0.5-0.3c0-0.2-0.2-0.3-0.6-0.4c-0.4-0.1-0.6-0.3-0.6-0.6
			c0-0.3,0.3-0.6,0.8-0.6c0.5,0,0.8,0.3,0.8,0.7h-0.3c0-0.3-0.2-0.4-0.5-0.4c-0.3,0-0.4,0.1-0.4,0.3c0,0.2,0.1,0.3,0.4,0.4
			c0.5,0.2,0.9,0.2,0.9,0.7c0,0.4-0.3,0.6-0.8,0.6C75.6,13.4,75.2,13.1,75.2,12.6z"/>
			<path class="st0" d="M77.4,11.2h0.5l0.5,1.4c0.1,0.3,0.1,0.4,0.1,0.4h0c0,0,0-0.1,0.1-0.4l0.5-1.4h0.5v2.2h-0.3l0-1.9h0
			c0,0,0,0.1-0.1,0.4l-0.5,1.4h-0.4l-0.5-1.4c-0.1-0.3-0.1-0.4-0.1-0.4h0v1.9h-0.3V11.2z"/>
		</g>
		<path class="st0" d="M72.5,38.2l7-12.3c0.2-0.4,0.2-0.9,0-1.2l-7.4-12.9c0,0,0,0,0,0c0,0,0-0.1-0.1-0.1c0,0,0,0,0,0
		c0,0-0.1-0.1-0.1-0.1c0,0,0,0,0,0c0,0-0.1-0.1-0.1-0.1c0,0,0,0,0,0c0,0-0.1,0-0.1-0.1c0,0,0,0,0,0c-0.1,0-0.2-0.1-0.3-0.1
		c0,0,0,0,0,0c0,0-0.1,0-0.1,0c0,0,0,0,0,0c-0.1,0-0.1,0-0.2,0H29.3c-0.1,0-0.1,0-0.2,0c0,0,0,0,0,0c0,0-0.1,0-0.1,0c0,0,0,0,0,0
		c-0.1,0-0.2,0.1-0.3,0.1c0,0,0,0,0,0c0,0-0.1,0-0.1,0.1c0,0,0,0,0,0c0,0-0.1,0.1-0.1,0.1l0,0c0,0-0.1,0.1-0.1,0.1c0,0,0,0,0,0
		c0,0,0,0.1-0.1,0.1c0,0,0,0,0,0l-7.4,12.9c-0.2,0.4-0.2,0.9,0,1.2L28,38.6V80c0,0.1,0,0.1,0,0.2c0,0,0,0,0,0c0,0,0,0.1,0,0.1
		c0,0,0,0,0,0c0,0.1,0.1,0.2,0.1,0.3c0,0,0,0,0,0c0,0,0,0.1,0.1,0.1c0,0,0,0,0,0c0,0,0.1,0.1,0.1,0.1l0,0c0,0,0.1,0.1,0.1,0.1
		c0,0,0,0,0,0c0,0,0.1,0,0.1,0.1c0,0,0,0,0,0l12.9,7.4c0.2,0.1,0.4,0.2,0.6,0.2s0.4-0.1,0.6-0.2l12.9-7.4c0,0,0,0,0,0
		c0,0,0.1,0,0.1-0.1c0,0,0,0,0,0c0,0,0.1-0.1,0.1-0.1c0,0,0,0,0,0c0,0,0.1-0.1,0.1-0.1c0,0,0,0,0,0c0,0,0-0.1,0.1-0.1c0,0,0,0,0,0
		c0.1-0.1,0.1-0.2,0.1-0.3c0,0,0,0,0,0c0,0,0-0.1,0-0.1c0,0,0,0,0,0c0-0.1,0-0.1,0-0.2V65.3H71c0.1,0,0.1,0,0.2,0c0,0,0,0,0,0
		c0,0,0.1,0,0.1,0c0,0,0,0,0,0c0.1,0,0.2-0.1,0.3-0.1c0,0,0,0,0,0c0,0,0.1,0,0.1-0.1c0,0,0,0,0,0c0,0,0.1-0.1,0.1-0.1c0,0,0,0,0,0
		c0,0,0.1-0.1,0.1-0.1c0,0,0,0,0,0c0,0,0-0.1,0.1-0.1c0,0,0,0,0,0l7.4-12.9c0.2-0.4,0.2-0.9,0-1.2L72.5,38.2z M62.9,49.9H42.3
		c-0.3,0-0.6,0.1-0.9,0.3c0,0,0,0,0,0c0,0,0,0-0.1,0.1c0,0,0,0,0,0c-0.2,0.2-0.4,0.5-0.4,0.9v20.7l-10.4,6V39.5h38.3L62.9,49.9z
		 M53.9,77.8l-10.4-6V54.2l10.4,10.4V77.8z M62.9,24.1H37.4l-6-10.4h37.4L62.9,24.1z M37.4,26.6h25.5l6,10.4H31.4L37.4,26.6z
		 M71,35.7l-6-10.4l6-10.4l6,10.4L71,35.7z M29.3,14.9l6,10.4l-6,10.4l-6-10.4L29.3,14.9z M42.2,86l-10.4-6l10.4-6l10.4,6L42.2,86z
		 M55.6,62.8L45.2,52.4h17.7l6,10.4H55.6z M71,61.6l-6-10.4l6-10.4l6,10.4L71,61.6z"/>
	</g>
</svg>
