<svg width="1523" height="838" xmlns="http://www.w3.org/2000/svg" xmlns:xlink="http://www.w3.org/1999/xlink"><defs><linearGradient x1="74.772%" y1="35.746%" x2="50%" y2="65.138%" id="b"><stop stop-color="#80A7FF" offset="0%"/><stop stop-color="#2A3551" offset="100%"/></linearGradient><path id="a" d="M0 0h1523v838H0z"/></defs><g fill="none" fill-rule="evenodd"><mask id="c" fill="#fff"><use xlink:href="#a"/></mask><use fill="url(#b)" xlink:href="#a"/><path fill="#A7B6FE" mask="url(#c)" d="M-690.195 763L522 769.525-756 1993V763"/><path fill="#96A8FF" mask="url(#c)" d="M-690.195 662L522 668.525-756 1892V662"/><path fill="#A3ABD4" mask="url(#c)" d="M-690.195 573L522 579.525-756 1803V573"/><path fill="#9EA2B7" mask="url(#c)" d="M-690.195 455L522 461.525-756 1685V455"/><path fill="#7E8EA8" mask="url(#c)" d="M-682.607 330L522 336.483-748 1552V330"/><path fill="#636A76" mask="url(#c)" d="M-682.607 220L522 226.472-748 1440V220"/><path fill="#4C4F54" mask="url(#c)" d="M-22.325 102H522l-971 949V508.503z"/><path fill="#393B3C" mask="url(#c)" d="M-41.325-7H503l-971 950V399.931z"/><path fill="#202020" mask="url(#c)" d="M163-52.999h244L-130 500V-55z"/></g></svg>